<svg id="svg" version="1.1" width="734" height="734" xmlns="http://www.w3.org/2000/svg"><path d="M389.247 1.250 C 383.400 8.578,379.518 30.444,380.993 47.750 C 381.121 49.263,381.664 51.329,382.198 52.343 C 383.014 53.890,382.636 53.810,379.835 51.843 C 378.001 50.554,376.275 49.275,376.000 49.000 C 375.725 48.725,373.250 47.325,370.500 45.890 C 367.750 44.454,362.251 41.416,358.281 39.140 C 354.310 36.863,350.818 35.000,350.520 35.000 C 350.222 35.000,348.071 34.140,345.739 33.089 C 341.896 31.357,332.726 28.192,329.706 27.556 C 329.043 27.416,327.825 27.028,327.000 26.694 C 325.429 26.056,316.637 24.240,311.500 23.491 C 309.850 23.251,307.150 22.826,305.500 22.548 C 303.850 22.269,298.000 21.761,292.500 21.417 C 287.000 21.074,280.475 20.371,278.000 19.856 C 275.525 19.341,272.338 18.730,270.918 18.499 C 269.498 18.267,267.120 17.616,265.633 17.051 C 264.147 16.486,262.609 16.089,262.215 16.170 C 261.410 16.336,259.040 15.523,254.216 13.427 C 252.410 12.642,250.272 12.000,249.466 12.000 C 248.660 12.000,248.000 11.622,248.000 11.161 C 248.000 9.921,243.019 7.870,241.815 8.614 C 240.114 9.666,241.670 15.696,244.684 19.730 C 246.233 21.804,247.843 23.652,248.261 23.837 C 248.680 24.023,249.513 25.089,250.111 26.208 C 250.899 27.680,250.897 28.054,250.104 27.564 C 248.790 26.752,245.516 25.977,241.729 25.582 C 240.206 25.422,238.668 25.001,238.313 24.646 C 237.957 24.291,236.724 24.000,235.571 24.000 C 232.520 24.000,219.077 19.571,215.000 17.222 C 208.724 13.606,207.539 13.610,206.262 17.247 C 201.863 29.784,203.213 47.143,209.736 61.905 C 211.710 66.371,219.437 78.288,221.434 79.945 C 222.295 80.660,223.000 81.672,223.000 82.194 C 223.000 83.264,225.516 86.000,226.500 86.000 C 226.854 86.000,227.750 86.607,228.491 87.348 C 229.622 88.479,227.394 88.804,214.670 89.362 C 206.326 89.727,197.475 90.497,195.000 91.072 C 192.525 91.647,189.082 92.293,187.349 92.509 C 184.437 92.870,179.856 94.863,171.000 99.620 C 166.413 102.084,152.758 102.516,144.601 100.455 C 141.356 99.636,138.455 99.212,138.153 99.514 C 137.851 99.816,138.080 101.849,138.663 104.032 C 139.245 106.214,139.569 108.000,139.381 108.000 C 139.194 108.000,137.232 107.277,135.022 106.392 C 129.102 104.023,127.628 104.981,128.292 110.767 C 129.179 118.488,130.200 122.187,133.325 129.000 C 134.460 131.475,135.684 133.725,136.044 134.000 C 136.405 134.275,136.880 135.026,137.100 135.668 C 137.320 136.310,140.875 140.607,145.000 145.216 C 153.037 154.197,161.893 162.000,164.048 162.000 C 164.776 162.000,166.300 162.824,167.436 163.830 C 168.571 164.837,171.412 166.205,173.750 166.870 C 176.087 167.536,178.000 168.453,178.000 168.909 C 178.000 169.951,161.003 172.288,155.082 172.060 C 152.652 171.967,149.804 171.430,148.754 170.868 C 147.703 170.306,146.204 170.092,145.422 170.392 C 142.986 171.326,143.386 172.714,148.860 182.310 C 157.012 196.601,177.451 209.846,193.500 211.240 C 196.459 211.496,196.426 211.549,191.000 215.093 C 182.285 220.787,173.070 231.855,171.375 238.667 C 170.987 240.225,169.015 243.750,166.993 246.500 C 161.415 254.085,160.623 256.873,161.305 266.528 C 161.631 271.157,161.528 275.174,161.075 275.453 C 160.623 275.733,159.047 278.333,157.574 281.231 C 153.269 289.700,149.350 296.165,148.027 296.983 C 147.351 297.401,144.930 297.183,142.649 296.497 C 140.367 295.812,136.025 294.919,133.000 294.514 C 129.975 294.108,126.995 293.369,126.378 292.872 C 125.760 292.374,121.150 291.071,116.133 289.976 C 99.667 286.382,80.500 288.809,62.000 296.829 C 44.662 304.345,41.345 308.144,40.283 321.702 C 39.775 328.188,39.996 329.471,42.508 334.605 C 44.718 339.123,45.058 340.637,44.146 341.903 C 43.513 342.781,42.518 344.616,41.935 345.980 C 41.352 347.343,40.525 348.693,40.097 348.980 C 38.362 350.140,33.866 365.761,33.539 371.767 C 32.914 383.238,36.028 404.428,39.379 411.500 C 40.161 413.150,41.565 417.425,42.500 421.000 C 45.178 431.249,59.792 459.922,67.219 469.500 C 79.447 485.270,80.460 487.845,80.594 503.500 C 80.809 528.703,83.158 540.951,89.794 551.468 C 93.439 557.244,102.133 565.427,107.444 568.079 C 109.950 569.331,112.000 570.725,112.000 571.177 C 112.000 571.630,112.661 572.000,113.470 572.000 C 114.278 572.000,116.616 572.942,118.666 574.093 C 125.856 578.132,141.293 582.006,156.421 583.569 C 159.678 583.906,163.212 584.348,164.275 584.553 C 165.338 584.758,174.374 585.197,184.354 585.529 C 216.688 586.606,216.184 586.468,227.145 597.258 C 241.582 611.471,242.276 612.505,241.799 619.105 C 241.476 623.570,240.760 625.527,238.444 628.278 C 236.825 630.201,234.600 632.283,233.500 632.905 C 232.400 633.526,229.700 635.362,227.500 636.984 C 225.300 638.606,222.488 639.949,221.250 639.967 C 220.012 639.985,219.000 640.398,219.000 640.885 C 219.000 641.804,208.819 643.510,205.750 643.105 C 204.788 642.978,204.000 643.306,204.000 643.834 C 204.000 646.055,217.846 660.213,219.199 659.377 C 219.640 659.105,220.000 659.268,220.000 659.740 C 220.000 660.748,224.649 662.505,231.056 663.917 C 234.484 664.673,236.947 664.569,241.009 663.498 C 246.101 662.154,249.216 662.212,245.643 663.583 C 244.739 663.930,244.000 664.847,244.000 665.621 C 244.000 666.394,243.561 667.809,243.024 668.764 C 241.399 671.652,237.261 686.847,235.033 698.100 C 232.762 709.574,233.252 714.000,236.792 714.000 C 244.292 714.000,257.665 709.254,262.281 704.953 C 263.434 703.879,264.730 703.000,265.162 703.000 C 265.594 703.000,268.032 700.915,270.580 698.367 L 275.213 693.734 277.522 696.617 C 278.792 698.203,280.391 701.188,281.076 703.250 C 281.760 705.313,282.680 707.000,283.120 707.000 C 283.560 707.000,284.444 708.913,285.085 711.250 C 285.727 713.587,286.870 716.918,287.626 718.651 C 288.382 720.384,289.000 722.442,289.000 723.223 C 289.000 724.004,289.717 726.749,290.594 729.322 C 291.682 732.516,292.746 734.000,293.947 734.000 C 295.525 734.000,295.318 732.635,291.940 720.750 C 289.869 713.462,287.010 704.246,285.587 700.269 C 284.164 696.292,283.000 692.391,283.000 691.600 C 283.000 690.809,282.363 688.888,281.584 687.331 C 280.806 685.774,279.690 683.263,279.106 681.750 C 277.835 678.463,275.403 678.154,274.449 681.159 C 273.577 683.908,257.330 700.000,255.428 700.000 C 254.643 700.000,254.000 700.429,254.000 700.953 C 254.000 701.477,252.312 702.678,250.250 703.621 C 248.188 704.564,245.825 705.873,245.000 706.530 C 244.175 707.188,241.976 708.013,240.114 708.365 L 236.728 709.004 237.446 704.252 C 237.841 701.639,238.265 698.825,238.388 698.000 C 238.510 697.175,239.098 695.375,239.694 694.000 C 240.290 692.625,241.983 687.262,243.455 682.082 C 244.928 676.902,247.678 669.478,249.566 665.585 C 251.455 661.692,253.000 658.227,253.000 657.884 C 253.000 657.541,249.512 657.256,245.250 657.251 C 236.202 657.239,228.259 655.673,223.395 652.941 C 221.494 651.874,219.278 651.000,218.470 651.000 C 217.661 651.000,217.000 650.622,217.000 650.161 C 217.000 649.699,215.763 648.746,214.250 648.043 L 211.500 646.765 216.000 645.478 C 218.475 644.770,221.625 643.854,223.000 643.443 C 226.887 642.281,236.154 636.030,239.752 632.144 C 243.346 628.263,248.000 619.612,248.000 616.813 C 248.000 614.161,240.514 600.338,236.227 595.073 C 230.689 588.272,228.123 586.128,222.024 583.202 C 216.714 580.655,215.803 580.548,198.500 580.443 C 188.600 580.383,177.350 580.006,173.500 579.605 C 164.232 578.640,147.951 576.088,146.894 575.435 C 146.432 575.149,144.364 574.699,142.298 574.434 C 134.042 573.377,121.968 569.350,111.974 564.320 C 104.970 560.794,97.000 554.077,97.000 551.701 C 97.000 550.900,96.325 549.685,95.500 549.000 C 94.675 548.315,94.000 547.119,94.000 546.342 C 94.000 545.565,93.308 543.873,92.461 542.581 C 91.615 541.289,91.011 539.843,91.120 539.366 C 91.229 538.890,91.046 537.825,90.714 537.000 C 88.470 531.423,85.664 505.285,85.571 489.084 C 85.520 480.092,85.155 476.552,84.250 476.250 C 83.470 475.990,83.000 476.783,83.000 478.358 C 83.000 479.746,82.550 481.160,82.000 481.500 C 81.450 481.840,81.000 481.705,81.000 481.201 C 81.000 480.696,78.734 477.857,75.965 474.892 C 72.801 471.503,69.232 465.971,66.358 460.000 C 63.843 454.775,61.472 450.275,61.090 450.000 C 60.168 449.336,57.981 444.339,54.088 434.000 C 52.327 429.325,50.059 423.700,49.047 421.500 C 46.324 415.577,45.792 413.952,44.954 409.000 C 44.535 406.525,43.228 400.900,42.050 396.500 C 39.499 386.974,39.221 372.965,41.423 364.877 C 43.086 358.766,47.522 346.145,48.269 345.398 C 48.542 345.125,50.570 348.186,52.775 352.201 C 57.220 360.293,65.179 371.485,68.408 374.185 C 72.800 377.856,79.182 380.184,83.416 379.659 C 90.921 378.727,99.474 375.864,102.055 373.419 C 103.460 372.089,104.956 371.000,105.380 371.000 C 107.970 371.000,121.114 360.655,130.617 351.136 C 138.186 343.555,142.452 340.000,143.983 340.000 C 146.290 340.000,153.000 333.621,153.000 331.427 C 153.000 330.777,153.675 329.685,154.500 329.000 C 157.623 326.408,156.149 325.140,152.296 327.104 C 147.372 329.615,146.082 328.221,148.904 323.437 C 151.002 319.883,151.016 319.675,149.292 317.770 C 144.989 313.016,128.849 305.917,112.000 301.368 C 106.775 299.957,102.073 298.397,101.550 297.901 C 100.982 297.362,104.034 297.000,109.140 297.000 C 123.620 297.000,141.058 302.710,150.694 310.606 C 155.788 314.780,157.321 317.330,157.214 321.458 L 157.135 324.500 159.901 321.421 C 161.422 319.728,163.416 318.054,164.333 317.702 C 167.203 316.601,166.385 311.755,162.750 308.328 C 160.963 306.642,158.600 304.746,157.500 304.114 C 155.931 303.213,157.761 303.059,166.000 303.398 C 171.775 303.635,178.075 304.143,180.000 304.526 C 185.200 305.561,200.349 310.118,201.500 310.994 C 202.050 311.413,203.625 312.071,205.000 312.457 C 207.001 313.019,220.691 319.681,242.049 330.487 C 243.122 331.030,244.000 331.818,244.000 332.237 C 244.000 332.657,244.830 333.000,245.845 333.000 C 246.860 333.000,248.505 333.900,249.500 335.000 C 250.495 336.100,251.738 337.000,252.261 337.000 C 252.783 337.000,254.626 338.132,256.356 339.515 C 258.085 340.898,259.950 342.380,260.500 342.807 C 261.981 343.957,272.901 351.342,274.832 352.500 C 275.749 353.050,276.725 353.731,277.000 354.014 C 277.275 354.296,279.975 356.538,283.000 358.996 C 286.025 361.454,289.414 364.485,290.532 365.732 C 292.521 367.952,296.000 368.846,296.000 367.137 C 296.000 365.774,282.014 353.197,272.475 345.981 C 266.951 341.803,256.991 334.861,253.134 332.500 C 252.235 331.950,251.275 331.271,251.000 330.991 C 249.821 329.790,241.967 325.000,241.176 325.000 C 240.700 325.000,239.453 324.024,238.405 322.830 C 236.526 320.690,236.527 320.671,238.500 321.439 C 239.600 321.867,242.075 322.669,244.000 323.220 C 248.455 324.498,267.510 333.944,276.000 339.084 C 284.545 344.257,284.967 344.433,286.112 343.288 C 286.748 342.652,283.846 340.213,277.794 336.299 C 268.515 330.295,256.269 323.000,255.471 323.000 C 255.240 323.000,252.226 321.722,248.775 320.160 C 242.765 317.440,235.925 315.749,225.820 314.484 C 223.247 314.162,220.097 313.087,218.820 312.095 C 217.544 311.103,214.700 309.717,212.500 309.015 C 210.300 308.313,208.050 307.386,207.500 306.955 C 206.950 306.523,204.056 305.325,201.069 304.293 C 191.001 300.813,194.253 299.000,210.566 299.000 C 215.710 299.000,220.159 298.551,220.501 297.998 C 221.547 296.306,216.246 295.000,208.328 295.000 C 201.503 295.000,200.863 294.834,201.597 293.250 C 202.043 292.288,202.577 288.219,202.784 284.210 C 203.136 277.399,201.709 269.775,198.907 263.500 C 198.416 262.400,197.379 259.652,196.602 257.394 C 194.193 250.387,189.089 244.474,183.282 241.960 L 178.063 239.702 181.967 235.040 C 184.114 232.475,187.812 228.544,190.185 226.304 C 201.805 215.335,205.589 212.037,206.576 212.020 C 207.167 212.009,208.708 210.875,210.000 209.500 C 211.292 208.125,212.715 207.000,213.163 207.000 C 213.611 207.000,216.570 205.088,219.739 202.750 C 222.907 200.412,227.750 197.375,230.500 196.000 C 233.250 194.625,236.573 192.713,237.885 191.750 C 239.197 190.788,240.847 190.000,241.552 190.000 C 242.257 190.000,245.009 189.030,247.667 187.844 C 250.325 186.659,253.005 185.582,253.623 185.452 C 254.241 185.321,256.266 184.529,258.123 183.691 C 259.980 182.854,264.875 181.248,269.000 180.123 C 273.125 178.998,278.946 177.410,281.935 176.594 C 284.924 175.778,287.756 175.349,288.229 175.641 C 288.701 175.933,289.630 175.734,290.294 175.198 C 291.323 174.367,296.424 173.383,304.500 172.458 C 305.600 172.332,311.450 171.923,317.500 171.549 C 330.995 170.716,331.690 170.536,329.877 168.351 C 328.701 166.935,326.666 166.803,314.014 167.325 C 297.470 168.007,287.025 168.866,285.757 169.650 C 285.279 169.946,282.550 170.559,279.694 171.012 C 274.213 171.882,266.849 173.661,263.500 174.926 C 262.400 175.341,258.350 176.707,254.500 177.963 C 245.460 180.910,229.157 188.634,221.461 193.617 C 214.944 197.836,214.561 198.124,208.379 203.450 C 203.420 207.722,201.248 207.849,192.270 204.397 C 177.465 198.705,171.815 195.953,168.178 192.661 C 167.169 191.748,166.027 191.000,165.642 191.000 C 164.743 191.000,151.999 178.090,152.003 177.183 C 152.005 176.807,156.617 176.427,162.253 176.337 C 178.049 176.086,184.949 174.774,190.099 171.043 C 192.520 169.290,194.500 167.359,194.500 166.753 C 194.500 166.147,192.250 165.117,189.500 164.465 C 184.262 163.222,176.093 159.885,173.069 157.752 C 171.604 156.719,173.498 156.477,183.896 156.366 C 193.046 156.269,198.568 155.678,204.043 154.210 C 213.786 151.598,229.613 145.724,238.500 141.422 C 245.310 138.126,252.988 132.601,251.994 131.713 C 251.722 131.471,246.550 132.139,240.500 133.197 C 231.158 134.830,226.109 135.053,207.000 134.675 C 182.414 134.189,177.980 133.429,162.867 127.105 C 152.850 122.913,135.994 112.663,137.184 111.486 C 137.358 111.314,139.408 111.523,141.740 111.951 C 147.202 112.952,149.449 110.991,146.135 108.117 C 142.939 105.345,143.505 104.802,148.750 105.605 C 154.444 106.478,157.496 106.472,161.500 105.581 C 163.150 105.214,166.026 104.696,167.892 104.430 C 169.757 104.164,172.457 103.310,173.892 102.533 C 176.961 100.869,187.414 97.608,194.500 96.103 C 200.832 94.758,212.182 93.844,227.500 93.444 C 234.100 93.272,240.287 93.102,241.250 93.066 C 242.213 93.030,243.000 92.614,243.000 92.143 C 243.000 91.671,239.733 87.959,235.740 83.893 C 223.475 71.404,215.336 59.608,211.992 49.475 C 210.675 45.485,209.057 34.000,209.812 34.000 C 210.057 34.000,212.057 35.625,214.255 37.612 C 224.929 47.254,253.086 54.210,270.572 51.523 L 275.500 50.766 270.014 49.343 C 263.615 47.683,255.537 43.798,247.911 38.712 C 242.814 35.313,234.234 28.250,236.583 29.387 C 237.179 29.676,242.916 30.203,249.333 30.560 C 262.934 31.315,263.488 30.836,257.019 23.898 C 253.350 19.964,252.239 17.372,255.226 19.714 C 256.711 20.879,266.111 22.770,274.000 23.493 C 277.025 23.770,280.625 24.418,282.000 24.934 C 283.375 25.450,288.550 26.113,293.500 26.408 C 298.450 26.703,303.400 27.107,304.500 27.306 C 305.600 27.505,308.975 28.019,312.000 28.449 C 315.025 28.879,318.222 29.609,319.104 30.072 C 319.986 30.535,322.236 31.089,324.104 31.303 C 329.017 31.865,345.000 37.078,345.000 38.118 C 345.000 38.603,345.797 39.000,346.771 39.000 C 347.745 39.000,352.001 41.025,356.229 43.500 C 360.457 45.975,364.218 48.000,364.587 48.000 C 365.269 48.000,370.962 52.692,376.623 57.920 C 378.340 59.506,381.715 62.084,384.123 63.650 C 386.530 65.215,389.095 67.060,389.821 67.748 C 391.326 69.173,393.000 69.400,393.000 68.178 C 393.000 67.726,392.346 65.364,391.547 62.928 C 389.734 57.403,387.200 35.521,387.444 27.500 C 387.636 21.205,389.656 11.269,391.122 9.408 C 391.595 8.807,391.751 8.084,391.467 7.800 C 391.184 7.517,391.638 6.716,392.476 6.020 C 393.809 4.914,394.001 5.428,394.008 10.128 C 394.017 16.167,395.511 30.346,397.126 39.728 C 398.408 47.175,400.228 50.050,414.981 67.919 C 426.095 81.380,431.333 89.050,434.500 96.500 C 437.690 104.004,440.883 114.000,440.090 114.000 C 438.306 114.000,425.973 103.778,420.338 97.627 C 417.016 94.002,412.768 88.215,410.899 84.768 L 407.500 78.500 407.194 84.450 C 406.569 96.609,412.427 114.986,424.627 139.144 C 429.376 148.547,433.453 155.218,436.019 157.784 C 439.193 160.958,439.692 161.904,438.444 162.383 C 435.962 163.336,437.592 164.682,441.932 165.264 C 445.438 165.734,466.688 174.442,468.000 175.946 C 468.275 176.261,470.300 177.415,472.500 178.510 C 476.069 180.286,483.200 186.000,481.846 186.000 C 481.553 186.000,478.880 185.167,475.907 184.149 C 469.171 181.844,462.123 180.494,463.500 181.774 C 465.199 183.353,484.114 196.467,491.575 201.238 C 497.350 204.931,521.273 222.687,538.000 235.695 C 559.046 252.062,560.907 254.000,555.576 254.000 C 554.307 254.000,552.045 254.963,550.548 256.141 C 548.140 258.035,547.865 258.842,548.163 263.142 C 548.470 267.569,548.307 268.001,546.323 268.001 C 541.975 267.999,543.146 272.538,550.099 282.644 C 556.961 292.618,565.777 299.356,575.474 302.038 C 580.601 303.456,581.168 303.835,579.474 304.712 C 574.157 307.465,555.989 309.142,548.250 307.594 C 544.649 306.874,544.000 306.992,544.000 308.364 C 544.000 309.256,545.350 311.187,547.000 312.658 C 548.650 314.128,550.000 315.728,550.000 316.213 C 550.000 316.699,551.575 319.558,553.500 322.567 C 555.425 325.577,557.000 328.650,557.000 329.397 C 557.000 330.144,557.621 331.270,558.379 331.900 C 559.138 332.530,560.023 334.367,560.347 335.983 C 561.314 340.822,569.559 344.885,586.525 348.885 C 589.289 349.536,596.714 350.019,603.025 349.957 C 610.910 349.879,615.595 350.291,618.000 351.274 C 622.268 353.018,624.252 353.716,625.286 353.837 C 625.718 353.887,626.763 354.620,627.607 355.464 C 628.452 356.309,629.748 357.000,630.488 357.000 C 631.228 357.000,634.684 358.510,638.167 360.356 C 641.650 362.202,645.625 364.061,647.000 364.487 C 648.375 364.913,651.300 366.058,653.500 367.033 C 663.038 371.260,667.011 371.994,677.902 371.545 C 693.327 370.908,707.714 365.962,702.936 362.939 C 702.146 362.439,700.632 362.024,699.571 362.015 C 697.025 361.995,691.000 359.793,691.000 358.882 C 691.000 358.488,692.561 358.290,694.469 358.441 C 698.363 358.750,712.144 352.503,712.850 350.108 C 713.311 348.548,712.917 348.609,701.000 351.946 C 696.191 353.293,691.283 353.952,687.323 353.784 C 683.925 353.639,680.806 353.861,680.391 354.276 C 679.309 355.358,685.673 361.616,689.909 363.634 L 693.500 365.344 690.500 366.191 C 686.876 367.215,674.704 367.359,668.212 366.456 C 662.315 365.635,651.451 361.880,643.149 357.794 L 636.799 354.668 642.149 352.581 C 648.512 350.100,654.736 346.727,657.500 344.261 C 660.060 341.977,667.000 333.376,667.000 332.486 C 667.000 332.114,667.963 330.457,669.139 328.805 L 671.278 325.801 679.389 326.396 C 683.850 326.723,688.850 327.202,690.500 327.460 C 697.629 328.573,703.676 329.877,706.000 330.803 C 707.375 331.350,711.425 332.620,715.000 333.623 C 718.575 334.627,723.447 336.478,725.826 337.736 C 730.112 340.003,732.004 339.990,731.996 337.691 C 731.987 335.421,708.256 325.430,700.633 324.488 C 698.910 324.275,695.475 323.831,693.000 323.502 C 684.661 322.393,677.055 322.258,672.765 323.144 C 670.419 323.628,664.675 324.672,660.000 325.464 C 655.325 326.256,648.653 327.391,645.173 327.986 C 641.526 328.610,635.170 328.788,630.173 328.406 C 615.788 327.308,608.718 327.390,608.287 328.661 C 607.884 329.848,615.405 335.217,622.400 338.735 C 626.616 340.856,626.176 341.864,620.689 342.651 C 618.935 342.902,616.036 343.569,614.247 344.133 C 610.502 345.312,589.201 345.031,584.000 343.733 C 571.154 340.529,564.047 337.159,564.020 334.261 C 563.995 331.479,559.075 318.974,557.297 317.172 C 556.577 316.442,555.585 315.092,555.093 314.172 C 554.288 312.666,555.108 312.500,563.349 312.498 C 571.241 312.497,573.288 312.122,578.225 309.773 C 581.374 308.275,584.862 306.138,585.975 305.025 C 588.233 302.767,588.673 299.120,586.750 298.598 C 577.596 296.111,570.101 293.352,568.436 291.855 C 567.300 290.835,566.033 290.000,565.620 290.000 C 564.514 290.000,552.000 277.109,552.000 275.970 C 552.000 275.437,553.013 274.931,554.250 274.847 C 562.399 274.295,562.282 274.261,576.500 281.352 C 582.395 284.292,585.851 285.841,589.000 286.956 C 590.925 287.638,597.000 289.787,602.500 291.733 C 608.000 293.679,613.175 295.352,614.000 295.451 C 614.825 295.550,617.852 296.422,620.728 297.388 C 623.603 298.355,626.415 298.861,626.978 298.514 C 627.540 298.166,628.000 298.315,628.000 298.844 C 628.000 299.374,630.362 300.055,633.250 300.358 C 636.138 300.661,640.300 301.096,642.500 301.325 C 651.494 302.258,658.545 303.249,659.271 303.683 C 660.186 304.230,668.737 304.739,690.500 305.541 C 709.406 306.238,718.084 306.685,727.250 307.433 L 734.000 307.983 733.996 287.242 L 733.993 266.500 719.432 261.551 C 711.424 258.829,704.649 256.241,704.377 255.801 C 704.105 255.360,703.087 255.000,702.114 255.000 C 700.677 255.000,679.955 244.948,663.000 236.027 C 661.075 235.014,656.350 232.776,652.500 231.053 C 648.650 229.331,644.825 227.511,644.000 227.010 C 636.710 222.581,599.218 205.421,590.750 202.638 C 588.478 201.891,588.538 200.728,590.959 198.537 C 593.690 196.066,596.348 187.529,595.675 183.388 C 594.660 177.132,592.306 176.042,578.404 175.392 C 563.989 174.719,559.120 173.318,556.223 169.011 C 554.933 167.092,552.031 163.552,549.775 161.145 L 545.673 156.769 550.087 157.572 C 552.514 158.013,556.975 158.403,560.000 158.437 C 564.960 158.494,565.531 158.280,565.819 156.256 C 566.033 154.746,565.053 152.997,562.819 150.904 C 557.851 146.250,543.392 140.085,539.250 140.855 C 535.688 141.518,539.052 139.029,546.791 135.277 C 556.870 130.390,565.692 123.247,564.734 120.749 C 563.287 116.980,549.832 115.908,537.000 118.540 C 528.896 120.203,519.241 124.493,514.594 128.497 C 512.996 129.873,511.646 130.999,511.594 130.997 C 511.543 130.996,511.500 128.183,511.500 124.747 C 511.500 118.204,509.331 104.794,507.771 101.685 C 507.270 100.687,506.711 99.112,506.529 98.185 C 505.897 94.966,502.593 87.468,499.372 81.945 C 495.451 75.220,473.177 52.479,465.807 47.675 C 462.888 45.773,459.117 42.916,457.426 41.326 C 455.736 39.736,451.982 36.914,449.085 35.054 C 446.187 33.195,443.296 31.179,442.658 30.574 C 442.021 29.969,440.232 28.662,438.683 27.670 C 431.791 23.257,419.929 11.008,414.652 2.855 C 412.277 -0.813,407.531 -1.159,406.367 2.250 C 405.370 5.167,405.274 5.613,405.125 8.000 C 404.918 11.307,403.275 10.284,400.308 5.001 C 397.745 0.438,397.184 0.002,393.872 0.001 C 391.877 0.000,389.796 0.563,389.247 1.250 M275.500 75.811 C 285.278 81.061,290.255 84.319,299.676 91.640 C 310.200 99.817,328.320 117.673,327.478 119.036 C 326.875 120.011,330.028 124.874,334.226 129.445 C 336.929 132.389,348.482 149.893,351.092 155.000 C 352.357 157.475,353.866 159.831,354.446 160.235 C 356.191 161.451,359.000 161.092,359.000 159.654 C 359.000 158.913,359.730 156.844,360.622 155.056 C 361.946 152.402,362.070 150.719,361.294 145.902 C 360.614 141.681,360.659 140.000,361.451 140.000 C 363.969 140.000,389.300 157.459,396.865 164.409 C 399.595 166.917,400.122 167.123,399.658 165.500 C 399.343 164.400,398.169 160.125,397.048 156.000 C 395.928 151.875,393.558 144.967,391.782 140.650 C 388.850 133.521,387.861 132.227,381.026 126.563 C 370.386 117.747,360.546 111.353,343.975 102.486 C 318.782 89.007,296.541 79.235,280.422 74.562 C 268.406 71.078,267.237 71.375,275.500 75.811 M284.000 112.910 C 284.000 113.410,287.453 115.714,291.673 118.030 C 301.925 123.657,322.314 137.139,328.412 142.324 C 331.113 144.621,336.616 149.762,340.641 153.750 C 344.666 157.738,348.392 161.000,348.921 161.000 C 350.928 161.000,350.972 159.002,349.035 155.810 C 344.369 148.120,331.652 137.455,318.000 129.783 C 315.525 128.392,308.904 124.510,303.287 121.156 C 289.979 113.210,284.000 110.654,284.000 112.910 M262.000 156.144 C 231.250 160.632,213.348 163.854,203.750 166.629 C 202.037 167.124,201.224 170.000,202.797 170.000 C 203.235 170.000,207.848 169.071,213.047 167.936 C 218.246 166.801,224.300 165.659,226.500 165.398 C 228.700 165.137,233.425 164.505,237.000 163.993 C 248.832 162.299,273.286 160.745,288.000 160.753 C 301.788 160.760,320.996 163.097,330.960 165.980 C 335.348 167.249,337.107 165.771,333.792 163.600 C 324.646 157.607,282.186 153.197,262.000 156.144 M298.835 215.711 C 291.729 221.515,282.000 233.586,282.000 236.598 C 282.000 237.288,282.687 237.999,283.527 238.177 C 284.833 238.453,284.757 239.076,283.002 242.500 C 280.907 246.585,278.694 253.318,278.570 255.986 C 278.531 256.804,279.194 257.606,280.043 257.770 C 281.045 257.963,282.217 256.565,283.386 253.783 C 286.463 246.463,292.440 234.587,293.750 233.190 C 294.438 232.457,295.000 231.262,295.000 230.536 C 295.000 229.809,295.675 228.955,296.500 228.638 C 297.325 228.322,298.000 227.374,298.000 226.531 C 298.000 225.689,298.450 225.000,299.000 225.000 C 299.550 225.000,300.000 224.347,300.000 223.550 C 300.000 222.752,300.726 221.693,301.614 221.196 C 303.388 220.204,304.481 214.415,303.060 213.537 C 302.570 213.234,300.669 214.212,298.835 215.711 M356.000 215.129 C 351.325 216.178,345.475 217.504,343.000 218.076 C 340.525 218.648,334.330 221.115,329.233 223.558 C 324.136 226.001,319.139 228.000,318.129 228.000 C 317.119 228.000,315.102 229.103,313.647 230.451 C 312.193 231.799,308.990 234.287,306.531 235.979 C 302.547 238.720,289.000 255.857,289.000 258.156 C 289.000 259.808,294.393 258.953,304.872 255.638 C 315.817 252.175,322.639 250.290,327.000 249.523 C 328.375 249.281,331.075 248.599,333.000 248.008 C 340.297 245.765,352.022 243.865,366.778 242.534 C 380.072 241.335,383.319 241.350,391.778 242.645 C 397.125 243.464,402.400 244.268,403.500 244.432 C 404.600 244.596,406.850 245.275,408.500 245.940 C 410.150 246.606,412.635 247.295,414.022 247.473 C 415.409 247.651,420.382 248.967,425.074 250.398 C 439.155 254.693,440.122 253.880,430.750 245.622 C 423.394 239.140,418.181 235.234,415.750 234.381 C 414.788 234.043,414.000 233.418,414.000 232.992 C 414.000 232.566,412.875 231.934,411.500 231.589 C 410.125 231.244,409.000 230.520,409.000 229.981 C 409.000 229.441,408.380 229.000,407.622 229.000 C 406.865 229.000,405.741 228.393,405.126 227.651 C 404.510 226.910,400.967 225.074,397.253 223.572 C 393.539 222.070,388.925 220.153,387.000 219.312 C 383.824 217.923,373.309 214.985,367.000 213.723 C 365.625 213.448,360.675 214.081,356.000 215.129 M398.686 219.648 C 398.152 220.181,410.280 228.000,411.640 228.000 C 412.168 228.000,420.410 234.534,424.885 238.500 C 429.844 242.896,436.389 249.888,440.586 255.275 C 444.003 259.661,447.000 261.388,447.000 258.971 C 447.000 257.585,438.347 246.571,432.881 241.000 C 427.090 235.098,418.193 228.328,409.442 223.164 C 402.609 219.133,400.040 218.293,398.686 219.648 M291.801 228.866 C 288.885 232.642,286.348 235.603,286.162 235.445 C 285.532 234.909,295.683 222.000,296.735 222.000 C 296.936 222.000,294.716 225.090,291.801 228.866 M327.487 259.207 C 318.552 268.972,307.000 287.990,307.000 292.935 C 307.000 295.667,309.959 293.554,311.459 289.750 C 312.381 287.413,315.412 282.012,318.194 277.750 C 323.384 269.798,325.974 267.038,321.948 273.750 C 316.836 282.272,310.000 296.152,310.000 298.009 C 310.000 300.966,312.886 300.430,314.092 297.250 C 315.637 293.171,321.102 282.576,321.958 282.000 C 322.366 281.725,323.268 280.375,323.962 279.000 C 324.656 277.625,327.625 272.900,330.559 268.500 C 334.699 262.291,335.849 259.735,335.697 257.082 C 335.589 255.202,334.993 253.495,334.372 253.289 C 333.752 253.083,330.654 255.747,327.487 259.207 M177.300 270.750 C 177.740 271.438,178.736 272.000,179.515 272.000 C 180.293 272.000,181.373 272.828,181.914 273.839 C 182.455 274.851,185.153 278.113,187.908 281.089 C 194.774 288.505,195.683 290.356,194.000 293.500 C 193.264 294.875,192.176 296.003,191.581 296.006 C 190.986 296.010,189.164 296.709,187.532 297.560 C 185.706 298.512,183.590 298.848,182.032 298.434 C 178.936 297.610,172.451 296.854,168.782 296.889 L 166.065 296.914 169.711 291.707 C 171.716 288.843,174.261 285.482,175.365 284.237 C 176.981 282.415,177.126 281.732,176.107 280.737 C 175.095 279.748,173.942 280.503,170.363 284.500 C 167.900 287.250,164.757 291.141,163.379 293.146 C 161.876 295.332,159.797 296.998,158.186 297.307 C 156.709 297.591,155.360 297.685,155.188 297.516 C 154.409 296.750,167.257 273.145,170.053 270.205 C 172.740 267.378,173.422 267.094,174.843 268.205 C 175.754 268.917,176.860 270.063,177.300 270.750 M342.500 299.798 C 340.300 299.982,338.072 300.554,337.550 301.067 C 337.028 301.580,335.903 302.003,335.050 302.006 C 331.484 302.018,326.274 304.172,323.000 306.987 C 321.075 308.641,319.260 309.996,318.966 309.998 C 318.208 310.001,315.000 315.588,315.000 316.904 C 315.000 317.507,315.513 318.000,316.140 318.000 C 316.767 318.000,317.826 318.747,318.493 319.660 C 319.610 321.187,320.099 321.129,324.604 318.935 C 332.598 315.041,338.986 313.121,348.148 311.859 C 359.055 310.356,368.198 311.752,391.500 318.477 C 396.450 319.906,402.300 321.959,404.500 323.040 C 406.700 324.121,409.063 325.004,409.750 325.003 C 410.438 325.001,411.000 325.367,411.000 325.815 C 411.000 327.344,418.219 330.181,419.317 329.083 C 420.622 327.778,414.671 322.034,408.180 318.335 C 405.606 316.868,402.600 314.890,401.500 313.940 C 398.929 311.720,384.988 305.000,382.953 305.000 C 382.099 305.000,380.973 304.580,380.450 304.066 C 379.928 303.552,377.700 302.896,375.500 302.609 C 373.300 302.321,368.926 301.453,365.779 300.681 C 360.404 299.361,351.649 299.029,342.500 299.798 M113.209 316.919 C 116.349 318.126,119.859 319.875,121.009 320.807 C 123.002 322.420,122.532 322.500,111.078 322.500 C 94.033 322.500,94.500 321.901,94.500 343.776 C 94.500 352.974,94.849 362.454,95.277 364.842 C 96.686 372.726,93.753 368.986,90.636 358.926 C 88.175 350.981,87.699 347.694,87.608 338.000 C 87.506 327.142,87.654 326.237,90.265 321.796 C 91.786 319.209,94.036 316.365,95.265 315.477 C 98.173 313.375,105.524 313.966,113.209 316.919 M698.446 319.087 C 697.360 320.845,699.057 321.620,706.973 322.978 C 711.083 323.684,715.133 324.633,715.973 325.086 C 716.813 325.540,720.488 327.244,724.139 328.872 C 727.791 330.501,731.080 332.321,731.448 332.917 C 732.723 334.979,734.131 333.988,733.816 331.250 C 733.566 329.073,732.361 327.890,728.033 325.571 C 717.681 320.023,700.231 316.199,698.446 319.087 M303.964 325.036 C 302.843 326.157,302.144 327.424,302.409 327.853 C 302.674 328.282,306.452 328.670,310.805 328.716 C 315.157 328.762,321.369 329.369,324.609 330.064 C 327.849 330.759,331.175 331.418,332.000 331.529 C 334.687 331.887,361.347 339.123,367.218 341.087 C 370.364 342.139,373.739 342.986,374.718 342.968 C 376.348 342.939,376.333 342.810,374.535 341.451 C 371.362 339.052,325.395 324.966,320.809 324.987 C 319.329 324.994,317.840 324.550,317.500 324.000 C 317.160 323.450,314.434 323.000,311.441 323.000 C 307.301 323.000,305.513 323.487,303.964 325.036 M526.464 343.250 C 528.270 348.887,531.345 357.557,533.298 362.516 C 536.899 371.659,542.278 390.788,543.558 399.000 C 546.342 416.866,563.727 453.425,570.698 456.075 C 572.036 456.584,575.351 457.000,578.065 457.000 C 580.779 457.000,583.000 457.396,583.000 457.880 C 583.000 458.363,587.163 458.774,592.250 458.792 C 602.952 458.831,607.339 459.370,618.869 462.064 C 627.181 464.006,634.000 466.628,634.000 467.883 C 634.000 468.243,631.799 468.465,629.109 468.375 C 620.552 468.090,603.741 472.830,589.250 479.613 C 584.163 481.995,580.000 484.301,580.000 484.737 C 580.000 486.311,590.640 489.333,597.000 489.565 C 603.246 489.793,615.508 488.040,617.866 486.583 C 622.113 483.958,613.519 494.181,607.415 499.016 C 601.542 503.667,591.803 509.249,587.000 510.716 C 583.975 511.640,581.323 512.521,581.107 512.674 C 579.913 513.519,583.664 515.936,587.058 516.510 C 589.226 516.876,591.000 517.556,591.000 518.020 C 591.000 518.901,585.678 523.000,584.534 523.000 C 584.172 523.000,581.542 524.091,578.688 525.425 C 575.835 526.759,572.150 528.082,570.500 528.366 C 568.850 528.649,563.900 529.543,559.500 530.351 C 552.149 531.703,548.394 531.739,527.336 530.662 C 525.595 530.573,523.833 530.163,523.419 529.750 C 522.179 528.513,520.303 528.867,512.971 531.720 C 505.513 534.621,504.332 536.693,510.418 536.199 C 513.200 535.973,515.794 536.826,520.813 539.616 C 524.491 541.661,527.650 543.709,527.833 544.167 C 528.017 544.625,528.624 545.000,529.182 545.000 C 530.833 545.000,537.261 548.206,540.594 550.692 C 542.296 551.961,544.434 553.000,545.344 553.000 C 546.255 553.000,547.000 553.473,547.000 554.052 C 547.000 554.631,548.350 555.575,550.000 556.150 C 551.650 556.725,553.000 557.902,553.000 558.764 C 553.000 559.627,552.715 560.048,552.366 559.699 C 552.017 559.351,550.615 559.945,549.249 561.019 C 547.883 562.094,546.368 562.727,545.882 562.427 C 545.397 562.127,545.000 562.268,545.000 562.740 C 545.000 563.212,543.313 564.190,541.250 564.914 C 539.188 565.638,536.150 566.801,534.500 567.498 C 527.578 570.423,517.866 573.156,509.000 574.675 C 503.817 575.562,481.263 575.715,475.500 574.902 C 472.200 574.436,466.800 573.820,463.500 573.533 C 460.200 573.245,456.150 572.797,454.500 572.536 C 450.059 571.834,431.791 570.897,421.500 570.843 C 411.580 570.791,400.365 572.603,399.691 574.368 C 399.380 575.183,404.276 575.515,417.200 575.555 C 427.546 575.587,435.429 576.019,435.820 576.577 C 436.194 577.108,437.625 577.603,439.000 577.677 C 451.367 578.336,459.584 579.047,465.500 579.969 C 482.051 582.547,508.968 581.437,525.500 577.494 C 526.600 577.231,528.625 576.762,530.000 576.450 C 531.375 576.138,532.950 575.774,533.500 575.641 C 535.838 575.076,542.651 571.427,544.439 569.783 C 545.505 568.802,546.762 568.000,547.232 568.000 C 547.703 568.000,549.300 566.875,550.783 565.500 C 552.266 564.126,554.946 562.304,556.739 561.453 C 561.195 559.339,561.114 556.078,556.549 553.809 C 554.679 552.879,551.202 550.875,548.824 549.356 C 546.446 547.836,543.898 546.493,543.162 546.372 C 542.427 546.251,541.041 545.442,540.084 544.576 C 539.126 543.709,537.590 543.000,536.671 543.000 C 535.752 543.000,535.000 542.619,535.000 542.153 C 535.000 541.687,533.987 540.787,532.750 540.152 C 530.892 539.199,531.544 539.087,536.500 539.509 C 546.065 540.324,549.023 540.328,557.205 539.540 C 564.756 538.812,564.921 538.844,565.392 541.148 C 565.861 543.446,567.291 582.047,567.090 587.000 C 566.952 590.405,563.381 600.989,559.444 609.662 C 555.173 619.075,548.880 628.263,542.265 634.750 L 536.911 640.000 540.366 640.000 C 543.383 640.000,552.010 637.711,557.232 635.525 C 558.567 634.966,558.065 636.719,555.043 643.168 C 546.984 660.365,544.955 675.804,549.519 685.191 L 551.314 688.883 558.758 676.691 C 562.851 669.986,566.287 664.406,566.392 664.292 C 566.675 663.983,567.359 691.082,567.331 701.500 C 567.311 709.188,566.796 711.958,563.797 720.500 C 561.866 726.000,559.949 731.288,559.536 732.250 C 558.826 733.908,562.696 734.000,632.893 734.000 C 673.652 734.000,707.000 733.818,707.000 733.596 C 707.000 733.374,705.425 730.406,703.500 727.000 C 701.575 723.594,700.000 720.471,700.000 720.059 C 700.000 719.647,699.100 718.495,698.000 717.500 C 696.900 716.505,695.994 715.197,695.987 714.595 C 695.979 713.993,694.967 712.221,693.737 710.658 C 685.215 699.832,681.737 696.000,680.432 696.000 C 679.610 696.000,678.694 695.366,678.397 694.592 C 678.100 693.817,676.539 692.637,674.928 691.970 C 671.162 690.410,671.241 689.364,675.413 685.588 C 679.486 681.902,683.493 672.695,684.438 664.846 C 685.276 657.901,684.284 657.055,679.286 660.452 C 674.657 663.597,673.320 663.695,675.227 660.750 C 676.852 658.239,678.041 654.209,678.667 649.081 C 679.368 643.343,678.623 642.793,673.798 645.485 C 671.434 646.805,667.700 648.334,665.500 648.885 C 663.300 649.436,659.700 650.356,657.500 650.931 C 655.300 651.505,648.264 652.272,641.864 652.635 C 628.318 653.403,628.710 653.666,627.473 643.000 C 626.678 636.152,626.788 614.288,627.650 607.500 C 627.930 605.300,628.270 602.150,628.406 600.500 C 629.070 592.463,631.249 589.222,642.189 580.008 C 645.968 576.825,660.477 570.000,663.466 570.000 C 664.382 570.000,666.114 569.472,667.316 568.827 C 674.350 565.050,698.576 564.237,709.237 567.421 C 715.441 569.274,717.988 568.845,715.508 566.365 C 714.678 565.536,714.000 563.970,714.000 562.886 C 714.000 561.801,712.431 558.009,710.514 554.457 C 708.596 550.906,707.462 548.000,707.993 548.000 C 708.525 548.000,710.798 548.736,713.045 549.635 C 718.957 552.000,719.688 550.678,716.950 542.573 C 715.718 538.924,714.325 535.701,713.855 535.410 C 713.385 535.120,713.000 534.209,713.000 533.386 C 713.000 529.460,699.779 513.593,689.000 504.584 C 685.821 501.928,685.087 500.897,686.500 501.075 C 689.252 501.421,696.000 499.951,696.000 499.005 C 696.000 497.973,700.611 496.442,704.594 496.152 C 706.871 495.987,712.000 492.041,712.000 490.456 C 712.000 489.916,713.157 488.606,714.571 487.544 C 715.986 486.482,718.312 483.562,719.741 481.056 C 721.169 478.550,722.956 475.769,723.711 474.875 C 724.466 473.981,724.983 472.856,724.860 472.375 C 724.737 471.894,725.165 469.700,725.812 467.500 C 726.459 465.300,726.991 463.242,726.994 462.926 C 726.997 462.611,723.393 462.548,718.984 462.786 C 711.802 463.174,710.391 462.937,705.425 460.507 C 699.765 457.738,698.871 457.029,688.593 447.168 C 685.344 444.050,681.356 440.515,679.731 439.310 L 676.775 437.121 680.217 435.683 C 682.110 434.892,685.609 432.390,687.992 430.122 C 690.375 427.855,692.613 426.000,692.964 426.000 C 693.315 426.000,695.794 422.288,698.472 417.750 C 701.151 413.212,703.925 408.527,704.637 407.337 C 705.350 406.147,707.410 404.862,709.216 404.481 C 711.022 404.101,713.850 403.219,715.500 402.523 C 717.150 401.827,721.875 400.177,726.000 398.857 L 733.500 396.456 733.785 385.650 C 734.047 375.676,733.932 374.884,732.285 375.370 C 711.615 381.473,699.556 384.113,690.792 384.453 C 685.453 384.660,680.592 385.134,679.990 385.506 C 679.388 385.878,671.157 386.141,661.698 386.091 C 645.318 386.005,636.523 385.049,631.000 382.757 C 624.673 380.131,621.228 378.295,617.856 375.750 C 614.219 373.005,611.000 372.157,611.000 373.945 C 611.000 374.465,612.951 376.719,615.336 378.954 C 617.720 381.189,620.296 384.251,621.061 385.759 C 621.825 387.266,623.474 389.772,624.725 391.327 C 627.605 394.905,627.613 396.834,624.750 397.432 C 613.028 399.883,598.953 397.653,585.000 391.134 C 574.152 386.066,554.000 369.755,554.000 366.043 C 554.000 365.469,552.925 365.000,551.610 365.000 C 549.759 365.000,548.745 363.989,547.110 360.511 C 545.950 358.042,545.000 355.292,545.000 354.401 C 545.000 352.906,525.329 333.014,523.841 333.004 C 523.478 333.002,524.659 337.613,526.464 343.250 M326.000 335.500 C 326.000 336.412,326.930 337.000,328.372 337.000 C 333.916 337.000,354.207 344.125,369.883 351.577 C 381.834 357.257,383.000 357.648,383.000 355.971 C 383.000 355.047,365.887 346.248,358.452 343.349 C 356.828 342.716,352.350 340.963,348.500 339.454 C 334.999 334.163,326.000 332.581,326.000 335.500 M89.315 410.999 C 85.660 412.485,84.721 415.572,85.321 424.139 C 85.623 428.452,86.096 432.347,86.372 432.792 C 86.647 433.238,87.997 438.305,89.371 444.051 C 91.885 454.563,97.616 470.016,99.816 472.216 C 100.467 472.867,101.017 473.872,101.038 474.450 C 101.058 475.027,102.583 477.262,104.426 479.415 L 107.777 483.330 118.138 483.063 C 131.803 482.711,136.639 482.783,148.000 483.509 C 164.943 484.591,164.000 484.754,164.000 480.735 C 164.000 476.728,160.745 470.525,155.720 464.958 C 153.641 462.655,149.913 458.135,147.435 454.915 C 144.957 451.695,142.382 448.709,141.715 448.280 C 141.047 447.851,137.601 444.178,134.057 440.118 C 113.377 416.423,98.997 407.065,89.315 410.999 M499.200 432.200 C 497.359 434.041,497.761 435.000,500.375 435.000 C 504.880 435.000,509.000 433.746,509.000 432.375 C 509.000 430.620,500.924 430.476,499.200 432.200 M201.184 438.750 C 201.585 442.242,205.481 443.211,206.479 440.067 C 207.360 437.291,206.375 436.000,203.375 436.000 C 201.229 436.000,200.913 436.397,201.184 438.750 M494.750 442.056 C 492.228 443.559,492.548 446.019,495.250 445.904 C 499.589 445.719,507.431 443.490,507.228 442.500 C 506.946 441.126,496.909 440.769,494.750 442.056 M183.309 449.636 C 181.778 453.626,187.926 456.875,189.929 453.133 C 190.514 452.040,190.721 450.437,190.389 449.572 C 189.572 447.441,184.133 447.490,183.309 449.636 M490.573 452.521 C 489.513 453.323,488.838 454.167,489.073 454.396 C 490.628 455.915,504.000 454.660,504.000 452.996 C 504.000 450.660,493.522 450.290,490.573 452.521 M204.392 459.422 C 203.599 461.488,205.868 465.173,207.710 464.810 C 209.862 464.386,211.453 461.624,210.691 459.636 C 209.916 457.618,205.146 457.456,204.392 459.422 M479.040 472.710 C 471.991 486.364,470.916 488.110,464.405 496.500 C 456.769 506.339,447.067 514.931,433.183 524.150 C 427.509 527.917,422.729 531.000,422.561 531.000 C 422.394 531.000,417.886 533.475,412.545 536.500 C 407.203 539.525,402.533 542.010,402.166 542.022 C 401.800 542.034,400.375 542.924,399.000 544.000 C 395.111 547.042,398.649 546.483,406.073 542.883 C 412.665 539.687,415.743 538.384,417.500 538.049 C 418.050 537.943,419.175 537.265,420.000 536.540 C 420.825 535.815,424.770 533.588,428.766 531.590 C 438.248 526.851,446.410 520.578,457.548 509.469 C 469.618 497.430,474.375 490.210,482.384 471.770 C 486.141 463.118,483.628 463.825,479.040 472.710 M146.659 473.250 C 150.764 477.621,151.444 479.723,148.652 479.409 C 147.468 479.276,145.262 479.129,143.750 479.083 C 141.170 479.005,141.000 478.722,141.000 474.500 C 141.000 469.024,142.400 468.714,146.659 473.250 M386.035 549.934 C 384.675 552.476,384.711 555.263,386.099 554.800 C 386.704 554.599,387.807 552.986,388.551 551.217 C 389.705 548.472,389.696 548.000,388.487 548.000 C 387.708 548.000,386.605 548.870,386.035 549.934 M375.975 555.565 C 374.666 559.008,374.746 560.000,376.332 560.000 C 377.065 560.000,378.148 558.425,378.739 556.500 C 379.619 553.630,379.555 553.000,378.382 553.000 C 377.595 553.000,376.512 554.154,375.975 555.565 M363.399 561.547 C 363.047 562.947,363.028 564.361,363.356 564.689 C 364.341 565.674,367.000 562.893,367.000 560.878 C 367.000 558.077,364.136 558.609,363.399 561.547 M291.000 652.411 C 291.000 654.163,296.064 666.012,303.004 680.500 C 313.406 702.214,318.000 712.168,318.000 712.994 C 318.000 713.456,318.337 713.983,318.750 714.167 C 319.163 714.350,321.701 718.888,324.392 724.250 C 327.658 730.758,329.841 734.000,330.960 734.000 C 332.249 734.000,330.197 729.090,322.068 712.725 C 316.256 701.023,309.981 688.086,308.125 683.975 C 306.269 679.864,303.050 672.900,300.972 668.500 C 298.895 664.100,296.240 658.362,295.072 655.750 C 293.022 651.161,291.000 649.503,291.000 652.411 " stroke="none" fill="black" fill-rule="evenodd"/></svg>